<svg width="110" height="58" viewBox="0 0 110 58" fill="none" xmlns="http://www.w3.org/2000/svg">
<g id="Logo">
<path id="Vector" d="M97.7729 13.3381C92.7357 7.59116 84.9862 3.9028 76.2895 3.9028C67.722 3.9028 60.1016 7.4625 55.0645 13.0808C60.0586 5.48965 68.583 0.343103 78.313 0C78.5713 0 78.8727 1.62965e-07 79.174 0.0428881C79.5615 0.0428881 79.949 0.128664 80.3795 0.128664C81.2406 0.21444 82.1877 0.385991 83.178 0.643319C84.1682 0.943534 85.2875 1.24375 86.3639 1.7584C87.4402 2.27306 88.5596 2.87349 89.5928 3.64547C90.6691 4.41745 91.6594 5.27521 92.6926 6.21875C93.6828 7.11939 94.5869 8.19159 95.3619 9.30668C95.7494 9.86422 96.1369 10.4218 96.4813 11.0222C96.8257 11.6226 97.1701 12.1802 97.4715 12.8235C97.6007 12.9521 97.6868 13.1666 97.7729 13.3381Z" fill="#CA4542"/>
<path id="Vector_2" d="M101.174 30.5791H100.399V37.87H101.174V30.5791Z" fill="#CA4542"/>
<path id="Vector_3" d="M101.131 39.3711V46.662H95.6201C97.4714 44.9894 99.1074 43.0595 100.356 40.9151V39.3711H101.131Z" fill="#CA4542"/>
<path id="Vector_4" d="M101.174 48.2059C95.8355 54.1674 88.086 57.8986 79.4324 57.8986C69.2288 57.8986 60.2738 52.6663 55.0645 44.7749C60.1016 50.3932 67.765 53.9529 76.3326 53.9529C83.0057 53.9529 89.0762 51.8085 93.855 48.2059H101.174Z" fill="#CA4542"/>
<path id="Vector_5" d="M106.599 39.3711C106.341 40.0573 106.039 40.7006 105.738 41.3439C104.877 43.1023 103.844 44.775 102.681 46.3618V39.3711H106.599Z" fill="#CA4542"/>
<path id="Vector_6" d="M108.493 30.5791C108.364 33.1095 107.891 35.5541 107.116 37.87H102.681V30.5791H108.493Z" fill="#CA4542"/>
<path id="Vector_7" d="M108.536 28.9493V29.0779H102.724C102.724 28.8635 102.681 28.5633 102.681 28.263C102.595 27.0193 102.509 25.2609 102.251 23.1165C101.992 20.9721 101.519 18.4417 100.615 15.9113C100.141 14.6247 99.5815 13.3381 98.8496 12.0943C98.5051 11.4939 98.1177 10.8934 97.7302 10.293C97.3427 9.69258 96.9122 9.13504 96.4386 8.5775C95.5345 7.46241 94.5012 6.39021 93.4249 5.48957C92.3486 4.58892 91.2292 3.73116 90.1098 3.04496C88.9905 2.31586 87.785 1.75832 86.6656 1.28655C85.5462 0.814786 84.3838 0.557459 83.3505 0.300131C83.1783 0.257243 83.0061 0.257243 82.877 0.214355C97.2997 1.8441 108.536 14.0671 108.536 28.9493Z" fill="#CA4542"/>
<path id="Vector_8" d="M51.3191 18.5273C51.5344 18.8704 51.7066 19.2136 51.8357 19.5995C51.4913 20.6289 51.19 21.701 50.9747 22.7732L49.6831 22.859C50.0706 21.3579 50.6303 19.8998 51.3191 18.5273Z" fill="white"/>
<path id="Vector_9" d="M54.1174 14.6245C53.9452 14.8818 53.816 15.1821 53.6438 15.4394L53.5146 14.9247C53.6008 14.839 53.6869 14.7103 53.7299 14.6245H54.1174Z" fill="white"/>
<path id="Vector_10" d="M52.0942 38.9421C52.0942 38.985 52.0511 39.0279 52.0511 39.0279C51.8789 39.2852 51.7067 39.4997 51.5345 39.7141C49.8124 36.4546 48.8652 32.7663 48.8652 28.9064C48.8652 28.1344 48.9083 27.3624 48.9944 26.6333C49.511 26.8906 49.9846 27.1908 50.3721 27.4911C50.329 27.9628 50.329 28.4346 50.329 28.9064C50.286 32.4661 50.9318 35.8542 52.0942 38.9421Z" fill="white"/>
<path id="Vector_11" d="M101.131 39.3711H93.812V46.662H101.131V39.3711Z" fill="white"/>
<path id="Vector_12" d="M101.131 30.5791H93.812V37.87H101.131V30.5791Z" fill="white"/>
<path id="Vector_13" d="M110 39.3711V46.662H102.724C102.724 46.7049 102.681 46.7049 102.681 46.7478V39.3711H110Z" fill="white"/>
<path id="Vector_14" d="M110 30.5791H102.681V37.87H110V30.5791Z" fill="white"/>
<path id="Vector_15" d="M106.427 39.6284C106.211 40.2288 105.996 40.7864 105.738 41.3868C104.963 43.231 103.973 45.0323 102.724 46.7049C102.724 46.7478 102.681 46.7478 102.681 46.7907V39.6284H106.427Z" fill="#CA4542"/>
<g id="Group">
<path id="Vector_16" d="M24.9706 29.6786C24.1957 28.4348 22.9902 27.3626 21.3111 26.5049C19.6321 25.6471 16.8337 24.7894 12.9589 23.9745C11.3659 23.6314 10.3757 23.2883 9.98826 22.9023C9.55773 22.5163 9.34246 22.1303 9.34246 21.6585C9.34246 21.0152 9.60078 20.5006 10.1174 20.0717C10.634 19.6428 11.409 19.4284 12.4423 19.4284C13.6908 19.4284 14.681 19.7286 15.4129 20.2861C16.1448 20.8866 16.5753 21.8301 16.8337 23.1167L25.1859 22.645C24.7984 19.6857 23.6791 17.4984 21.7417 16.126C19.8043 14.7536 17.0059 14.0674 13.3464 14.0674C10.3327 14.0674 8.00783 14.4534 6.28571 15.1825C4.5636 15.9116 3.27202 16.9838 2.41096 18.2704C1.5499 19.5999 1.11937 20.9723 1.11937 22.4305C1.11937 24.6607 1.98043 26.5049 3.61644 27.9631C5.25244 29.4213 8.05088 30.5792 11.9687 31.437C14.3366 31.9516 15.8865 32.5092 16.5323 33.1096C17.1781 33.71 17.5225 34.3534 17.5225 35.1253C17.5225 35.8973 17.1781 36.5835 16.4892 37.184C15.8004 37.7844 14.8532 37.9559 13.5616 37.9559C11.8826 37.9559 10.5479 37.4842 9.60078 36.3262C9.04109 35.5971 8.65362 34.5678 8.48141 33.1954L0 33.7958C0.258317 36.6693 1.33464 39.071 3.18591 40.9581C5.08023 42.8452 8.48141 43.7887 13.3464 43.7887C16.1448 43.7887 18.4266 43.4027 20.2779 42.5878C22.0861 41.773 23.5499 40.615 24.5401 39.071C25.5734 37.5271 26.09 35.8116 26.09 33.9674C26.1331 32.3805 25.7456 30.9652 24.9706 29.6786Z" fill="#343333"/>
<path id="Vector_17" d="M53.5578 33.9675C53.5578 35.7687 53.0842 37.4414 52.094 38.9425C52.094 38.9853 52.0509 39.0282 52.0509 39.0282C51.8787 39.2856 51.7065 39.5 51.5343 39.7144C50.5871 40.9153 49.2956 41.9017 47.7457 42.545C45.9374 43.3599 43.6126 43.7459 40.8141 43.7459C35.9061 43.7459 32.548 42.8024 30.6537 40.9153C28.7594 39.0282 27.683 36.6694 27.4678 33.753L35.9492 33.2384C36.1214 34.6108 36.5089 35.6401 37.0686 36.3692C37.9727 37.5271 39.3073 37.956 40.9864 37.956C42.2349 37.956 43.2251 37.7845 43.914 37.184C44.6028 36.5836 44.9472 35.8974 44.9472 35.1254C44.9472 34.3963 44.6028 33.7101 43.957 33.1526C43.3112 32.5522 41.8044 31.9946 39.3934 31.48C35.4756 30.6222 32.7202 29.4642 31.0412 28.006C29.3621 26.5478 28.5441 24.7037 28.5441 22.4735C28.5441 21.0153 28.9746 19.6 29.8357 18.3134C30.6967 16.9838 31.9883 15.9545 33.7104 15.2254C35.4325 14.4535 37.8005 14.1104 40.7711 14.1104C44.4306 14.1104 47.2721 14.7966 49.1664 16.169C50.0275 16.7694 50.7594 17.5843 51.319 18.5278C51.5343 18.8709 51.7065 19.214 51.8357 19.6C52.2232 20.5007 52.4815 21.53 52.6106 22.6879L50.9746 22.7737L49.683 22.8595L44.2584 23.1597C44.0431 21.8731 43.5695 20.9295 42.8807 20.3291C42.1488 19.7287 41.1586 19.4713 39.91 19.4713C38.8768 19.4713 38.1018 19.6858 37.5852 20.1147C37.0686 20.5435 36.8102 21.1011 36.8102 21.7015C36.8102 22.1304 37.0255 22.5593 37.456 22.9453C37.8866 23.3313 38.8768 23.6744 40.4267 24.0175C44.3014 24.8752 47.0999 25.6901 48.7789 26.5478C48.865 26.5907 48.9081 26.6336 48.9942 26.6765C49.5108 26.9338 49.9844 27.2341 50.3719 27.5343C51.2329 28.1776 51.9648 28.9067 52.4384 29.7216C53.1703 30.9653 53.5578 32.3806 53.5578 33.9675Z" fill="#343333"/>
<path id="Vector_18" d="M93.7261 14.625L87.3973 43.2741H78.6576L73.6204 25.2612L68.5832 43.2741H59.8865L53.6439 15.4828V15.4399L53.5578 14.9252L53.4717 14.625H61.91L64.9668 30.6651L69.4012 14.625H77.8396L82.274 30.6651L85.3308 14.625H93.7261Z" fill="#343333"/>
</g>
<g id="Group_2">
<g id="Group_3">
<path id="Vector_19" d="M110 30.5791H102.681V37.87H110V30.5791Z" fill="#343333"/>
</g>
<g id="Group_4">
<path id="Vector_20" d="M101.131 30.5791H93.812V37.87H101.131V30.5791Z" fill="#797979"/>
</g>
<g id="Group_5">
<path id="Vector_21" d="M110 39.3711H102.681V46.662H110V39.3711Z" fill="#CA4542"/>
</g>
<g id="Group_6">
<path id="Vector_22" d="M101.131 39.3711H93.812V46.662H101.131V39.3711Z" fill="#AAAAAA"/>
</g>
</g>
</g>
</svg>
